<?xml version="1.0" encoding="UTF-8" standalone="no"?>
<!DOCTYPE svg PUBLIC "-//W3C//DTD SVG 1.0//EN" "http://www.w3.org/TR/2001/REC-SVG-20010904/DTD/svg10.dtd">
<!-- Generated by Microsoft Visio 11.0, SVG Export, v1.0 R.svg Page-1 -->
<svg xmlns="http://www.w3.org/2000/svg" xmlns:xlink="http://www.w3.org/1999/xlink" xmlns:ev="http://www.w3.org/2001/xml-events"
		xmlns:v="http://schemas.microsoft.com/visio/2003/SVGExtensions/" width="11in" height="8.5in" viewBox="0 0 792 612"
		xml:space="preserve" color-interpolation-filters="sRGB" class="st24">
	<v:documentProperties v:langID="1033" v:viewMarkup="false">
		<v:userDefs>
			<v:ud v:nameU="msvNoAutoConnect" v:val="VT0(0):26"/>
		</v:userDefs>
	</v:documentProperties>

	<style type="text/css">
	<![CDATA[
		.st1 {fill:#ff00ff;fill-opacity:0;stroke:#000000;stroke-linecap:round;stroke-linejoin:round;stroke-opacity:0;stroke-width:1.5}
		.st2 {stroke:#000000;stroke-linecap:round;stroke-linejoin:round;stroke-width:0.75}
		.st3 {fill:url(#grad30-73);stroke:#000000;stroke-linecap:round;stroke-linejoin:round;stroke-width:0.75}
		.st4 {fill:url(#grad25-77);stroke:#000000;stroke-linecap:round;stroke-linejoin:round;stroke-width:0.75}
		.st5 {stroke:#000000;stroke-linecap:round;stroke-linejoin:round;stroke-width:1.5}
		.st6 {fill:#000000;font-family:Calibri;font-size:1.99999em;font-weight:bold}
		.st7 {font-size:1em}
		.st8 {fill:#e8eef7;stroke:#000000;stroke-linecap:round;stroke-linejoin:round;stroke-width:0.24}
		.st9 {fill:#000000;font-family:Calibri;font-size:1.33333em}
		.st10 {stroke:#000000;stroke-linecap:round;stroke-linejoin:round;stroke-width:0.25}
		.st11 {fill:none;stroke:none;stroke-linecap:round;stroke-linejoin:round;stroke-width:0.75}
		.st12 {fill:#000000;font-family:Calibri;font-size:2.50001em}
		.st13 {font-size:0.750003em}
		.st14 {font-size:0.666667em;font-style:italic;font-weight:normal}
		.st15 {font-size:0.750003em;font-weight:normal}
		.st16 {fill:#ff00ff;fill-opacity:0}
		.st17 {stroke:#000000;stroke-linecap:round;stroke-linejoin:round;stroke-opacity:0;stroke-width:0.72}
		.st18 {fill:url(#grad40-152)}
		.st19 {stroke:#373773;stroke-linecap:round;stroke-linejoin:round;stroke-width:0.72}
		.st20 {fill:url(#grad40-152);stroke:#555555;stroke-linecap:round;stroke-linejoin:round;stroke-width:0.72}
		.st21 {stroke:#555555;stroke-linecap:round;stroke-linejoin:round;stroke-width:0.72}
		.st22 {stroke:#000000;stroke-linecap:round;stroke-linejoin:round;stroke-width:2}
		.st23 {fill:#000000;font-family:Calibri;font-size:1.99999em}
		.st24 {fill:none;fill-rule:evenodd;font-size:12px;overflow:visible;stroke-linecap:square;stroke-miterlimit:3}
	]]>
	</style>

	<defs id="Patterns_And_Gradients">
		<linearGradient id="grad30-73" v:fillPattern="30" v:foreground="#c6d1e3" v:background="#8baede" x1="0" y1="1" x2="0" y2="0">
			<stop offset="0" style="stop-color:#c6d1e3;stop-opacity:1"/>
			<stop offset="1" style="stop-color:#8baede;stop-opacity:1"/>
		</linearGradient>
		<linearGradient id="grad25-77" v:fillPattern="25" v:foreground="#c6d1e3" v:background="#4e8ec2" x1="0" y1="0" x2="1" y2="0">
			<stop offset="0" style="stop-color:#c6d1e3;stop-opacity:1"/>
			<stop offset="1" style="stop-color:#4e8ec2;stop-opacity:1"/>
		</linearGradient>
		<radialGradient id="grad40-152" v:fillPattern="40" v:foreground="#c6d1e3" v:background="#4e8ec2" cx="0.5" cy="0.5" r="0.5">
			<stop offset="0" style="stop-color:#c6d1e3;stop-opacity:1"/>
			<stop offset="1" style="stop-color:#4e8ec2;stop-opacity:1"/>
		</radialGradient>
	</defs>
	<g v:mID="0" v:index="1" v:groupContext="foregroundPage">
		<title>Page-1</title>
		<v:pageProperties v:drawingScale="1" v:pageScale="1" v:drawingUnits="0" v:shadowOffsetX="9" v:shadowOffsetY="-9"/>
		<v:layer v:name="Connector" v:index="0"/>
		<g id="group1-1" transform="translate(322.2,-282)" v:mID="1" v:groupContext="group">
			<v:custProps>
				<v:cp v:nameU="Manufacturer" v:lbl="Manufacturer" v:type="0" v:sortKey="Equipment" v:invis="false" v:ask="false"
						v:langID="1033"/>
				<v:cp v:nameU="ProductNumber" v:lbl="Product Number" v:type="0" v:sortKey="Equipment" v:invis="false" v:ask="false"
						v:langID="1033"/>
				<v:cp v:nameU="PartNumber" v:lbl="Part Number" v:type="0" v:sortKey="Equipment" v:invis="false" v:ask="false"
						v:langID="1033"/>
				<v:cp v:nameU="ProductDescription" v:lbl="Product Description" v:type="0" v:sortKey="Equipment" v:invis="false"
						v:ask="false" v:langID="1033"/>
				<v:cp v:nameU="AssetNumber" v:lbl="Asset Number" v:type="0" v:sortKey="Asset" v:invis="false" v:ask="false"
						v:langID="1033"/>
				<v:cp v:nameU="SerialNumber" v:lbl="Serial Number" v:type="0" v:sortKey="Asset" v:invis="false" v:ask="false"
						v:langID="1033"/>
				<v:cp v:nameU="Location" v:lbl="Location" v:type="0" v:sortKey="Asset" v:invis="false" v:ask="false"
						v:langID="1033"/>
				<v:cp v:nameU="Building" v:lbl="Building" v:type="0" v:sortKey="Asset" v:invis="false" v:ask="false"
						v:langID="1033"/>
				<v:cp v:nameU="Room" v:lbl="Room" v:type="0" v:sortKey="Asset" v:invis="false" v:ask="false" v:langID="1033"/>
				<v:cp v:nameU="Department" v:lbl="Department" v:type="0" v:invis="false" v:ask="false" v:langID="1033"/>
				<v:cp v:nameU="ShapeClass" v:lbl="ShapeClass" v:type="0" v:invis="true" v:ask="false" v:langID="1033"
						v:val="VT4(Connectivity)"/>
				<v:cp v:nameU="ShapeType" v:lbl="ShapeType" v:type="0" v:invis="true" v:ask="false" v:langID="1033"
						v:val="VT4(RingNetwork)"/>
				<v:cp v:nameU="NetworkName" v:lbl="Network Name" v:type="0" v:sortKey="Network" v:invis="false" v:ask="false"
						v:langID="1033"/>
				<v:cp v:nameU="IPAddress" v:lbl="IP Address" v:type="0" v:sortKey="Network" v:invis="false" v:ask="false"
						v:langID="1033"/>
				<v:cp v:nameU="SubnetMask" v:lbl="Subnet Mask" v:type="0" v:sortKey="Network" v:invis="false" v:ask="false"
						v:langID="1033"/>
				<v:cp v:nameU="AdminInterface" v:lbl="Administrative Interface" v:type="0" v:sortKey="Network" v:invis="false"
						v:ask="false" v:langID="1033"/>
				<v:cp v:nameU="NumberofPorts" v:lbl="Number of Ports" v:type="0" v:sortKey="Network" v:invis="false" v:ask="false"
						v:langID="1033"/>
				<v:cp v:nameU="MACAddress" v:lbl="MAC Address" v:type="0" v:sortKey="Network" v:invis="false" v:ask="false"
						v:langID="1033"/>
				<v:cp v:nameU="CommunityString" v:lbl="Community String" v:type="0" v:sortKey="Network" v:invis="false"
						v:ask="false" v:langID="1033"/>
				<v:cp v:nameU="NetworkDescription" v:lbl="Network Description" v:type="0" v:sortKey="Network" v:invis="false"
						v:ask="false" v:langID="1033"/>
			</v:custProps>
			<v:userDefs>
				<v:ud v:nameU="visVersion" v:val="VT0(14):26"/>
				<v:ud v:nameU="ShapeClass" v:val="VT0(4):26"/>
				<v:ud v:nameU="ShapeType" v:val="VT0(21):26"/>
				<v:ud v:nameU="SolSH" v:val="VT14({BF0433D9-CD73-4EB5-8390-8653BE590246}):41"/>
				<v:ud v:nameU="visLegendShape" v:val="VT0(2):26"/>
			</v:userDefs>
			<title>Ring network</title>
			<desc>Base R + core packages</desc>
			<g id="shape2-2" v:mID="2" v:groupContext="shape" transform="translate(0,13.5)">
				<title>Sheet.2</title>
				<path d="M160.2 531.9 A80.1 53.4 -180 1 0 -0 531.9 L0 558.6 A80.1 53.4 -180 1 0 160.2 558.6 L160.2 531.9 Z"
						class="st1"/>
			</g>
			<g id="shape3-4" v:mID="3" v:groupContext="shape">
				<title>Sheet.3</title>
				<path d="M0 625.35 L80.1 558.6" class="st2"/>
				<path d="M80.1 652.05 L80.1 558.6" class="st2"/>
				<path d="M160.2 625.35 L80.1 558.6" class="st2"/>
				<path d="M180.22 558.6 L80.1 558.6" class="st2"/>
				<path d="M160.2 505.2 L80.1 558.6" class="st2"/>
				<path d="M80.1 491.85 L80.1 558.6" class="st2"/>
				<path d="M0 505.2 L80.1 558.6" class="st2"/>
				<path d="M-20.03 558.6 L80.1 558.6" class="st2"/>
				<path d="M20.03 558.6 L80.1 558.6" class="st2"/>
				<path d="M40.05 531.9 L80.1 558.6" class="st2"/>
				<path d="M80.1 518.55 L80.1 558.6" class="st2"/>
				<path d="M120.15 531.9 L80.1 558.6" class="st2"/>
				<path d="M140.17 558.6 L80.1 558.6" class="st2"/>
				<path d="M120.15 585.3 L80.1 558.6" class="st2"/>
				<path d="M80.1 595.98 L80.1 558.6" class="st2"/>
				<path d="M40.05 585.3 L80.1 558.6" class="st2"/>
				<path d="M20.03 558.6 L80.1 558.6" class="st2"/>
				<path d="M40.05 531.9 L80.1 558.6" class="st2"/>
				<path d="M80.1 518.55 L80.1 558.6" class="st2"/>
				<path d="M120.15 531.9 L80.1 558.6" class="st2"/>
				<path d="M140.17 558.6 L80.1 558.6" class="st2"/>
				<path d="M120.15 585.3 L80.1 558.6" class="st2"/>
				<path d="M80.1 595.98 L80.1 558.6" class="st2"/>
				<path d="M40.05 585.3 L80.1 558.6" class="st2"/>
				<path d="M20.03 558.6 L80.1 558.6" class="st2"/>
				<path d="M40.05 531.9 L80.1 558.6" class="st2"/>
				<path d="M80.1 518.55 L80.1 558.6" class="st2"/>
				<path d="M120.15 531.9 L80.1 558.6" class="st2"/>
				<path d="M140.17 558.6 L80.1 558.6" class="st2"/>
				<path d="M120.15 585.3 L80.1 558.6" class="st2"/>
				<path d="M80.1 595.98 L80.1 558.6" class="st2"/>
				<path d="M40.05 585.3 L80.1 558.6" class="st2"/>
				<path d="M20.03 558.6 L80.1 558.6" class="st2"/>
				<path d="M40.05 531.9 L80.1 558.6" class="st2"/>
				<path d="M80.1 518.55 L80.1 558.6" class="st2"/>
				<path d="M120.15 531.9 L80.1 558.6" class="st2"/>
				<path d="M140.17 558.6 L80.1 558.6" class="st2"/>
				<path d="M120.15 585.3 L80.1 558.6" class="st2"/>
				<path d="M80.1 595.98 L80.1 558.6" class="st2"/>
				<path d="M40.05 585.3 L80.1 558.6" class="st2"/>
				<path d="M20.03 558.6 L80.1 558.6" class="st2"/>
				<path d="M40.05 531.9 L80.1 558.6" class="st2"/>
				<path d="M80.1 518.55 L80.1 558.6" class="st2"/>
				<path d="M120.15 531.9 L80.1 558.6" class="st2"/>
				<path d="M140.17 558.6 L80.1 558.6" class="st2"/>
				<path d="M120.15 585.3 L80.1 558.6" class="st2"/>
				<path d="M80.1 595.98 L80.1 558.6" class="st2"/>
				<path d="M40.05 585.3 L80.1 558.6" class="st2"/>
				<path d="M20.03 558.6 L80.1 558.6" class="st2"/>
				<path d="M40.05 531.9 L80.1 558.6" class="st2"/>
				<path d="M80.1 518.55 L80.1 558.6" class="st2"/>
				<path d="M120.15 531.9 L80.1 558.6" class="st2"/>
				<path d="M140.17 558.6 L80.1 558.6" class="st2"/>
				<path d="M120.15 585.3 L80.1 558.6" class="st2"/>
				<path d="M80.1 595.98 L80.1 558.6" class="st2"/>
				<path d="M40.05 585.3 L80.1 558.6" class="st2"/>
				<path d="M20.03 558.6 L80.1 558.6" class="st2"/>
				<path d="M40.05 531.9 L80.1 558.6" class="st2"/>
				<path d="M80.1 518.55 L80.1 558.6" class="st2"/>
				<path d="M120.15 531.9 L80.1 558.6" class="st2"/>
				<path d="M140.17 558.6 L80.1 558.6" class="st2"/>
				<path d="M120.15 585.3 L80.1 558.6" class="st2"/>
				<path d="M80.1 595.98 L80.1 558.6" class="st2"/>
				<path d="M40.05 585.3 L80.1 558.6" class="st2"/>
			</g>
			<g id="shape4-70" v:mID="4" v:groupContext="shape">
				<title>Sheet.4</title>
				<path d="M0 558.6 A80.1 53.4 0 1 1 160.2 558.6 A80.1 53.4 0 1 1 0 558.6 Z" class="st3"/>
			</g>
			<g id="shape5-74" v:mID="5" v:groupContext="shape" transform="translate(0,26.7)">
				<title>Sheet.5</title>
				<path d="M160.2 558.6 L160.2 531.9 A80.1 53.4 -0 1 1 0 531.9 L0 558.6 A80.1 53.4 -180 0 0 160.2 558.6 Z"
						class="st4"/>
			</g>
			<g id="shape6-78" v:mID="6" v:groupContext="shape" transform="translate(0,26.7)">
				<title>Sheet.6</title>
				<path d="M160.2 531.9 A80.1 53.4 -180 1 0 0 531.9 L0 558.6 A80.1 53.4 -180 1 0 160.2 558.6 L160.2 531.9"
						class="st5"/>
			</g>
			<g id="shape1-81" v:mID="1" v:groupContext="groupContent">
				<v:textBlock v:margins="rect(0,0,0,0)"/>
				<v:textRect cx="80.1" cy="558.6" width="145.59" height="57.6034"/>
				<text x="38.46" y="551.4" class="st6" v:langID="1033"><v:paragraph v:horizAlign="1"/><v:tabList/>Base R + <v:newlineChar/><tspan
							x="10.02" dy="1.2em" class="st7">core packages</tspan></text>			</g>
		</g>
		<g id="shape7-84" v:mID="7" v:groupContext="shape" transform="translate(252,-388.8)">
			<title>Circle</title>
			<desc>ggplot2</desc>
			<v:userDefs>
				<v:ud v:nameU="visVersion" v:val="VT0(14):26"/>
			</v:userDefs>
			<v:textBlock v:margins="rect(4,4,4,4)"/>
			<v:textRect cx="36" cy="576" width="63.01" height="54"/>
			<path d="M0 576 A36 36 0 0 1 72 576 A36 36 0 1 1 0 576 Z" class="st8"/>
			<text x="11.48" y="580.8" class="st9" v:langID="1033"><v:paragraph v:horizAlign="1"/><v:tabList/>ggplot2</text>		</g>
		<g id="shape8-87" v:mID="8" v:groupContext="shape" transform="translate(366.3,-415.8)">
			<title>Circle.8</title>
			<desc>lattice</desc>
			<v:userDefs>
				<v:ud v:nameU="visVersion" v:val="VT0(14):26"/>
			</v:userDefs>
			<v:textBlock v:margins="rect(4,4,4,4)"/>
			<v:textRect cx="36" cy="576" width="63.01" height="54"/>
			<path d="M0 576 A36 36 0 0 1 72 576 A36 36 0 1 1 0 576 Z" class="st8"/>
			<text x="15.77" y="580.8" class="st9" v:langID="1033"><v:paragraph v:horizAlign="1"/><v:tabList/>lattice</text>		</g>
		<g id="shape9-90" v:mID="9" v:groupContext="shape" transform="translate(482.4,-388.8)">
			<title>Circle.9</title>
			<desc>lme4</desc>
			<v:userDefs>
				<v:ud v:nameU="visVersion" v:val="VT0(14):26"/>
			</v:userDefs>
			<v:textBlock v:margins="rect(4,4,4,4)"/>
			<v:textRect cx="36" cy="576" width="63.01" height="54"/>
			<path d="M0 576 A36 36 0 0 1 72 576 A36 36 0 1 1 0 576 Z" class="st8"/>
			<text x="19.74" y="580.8" class="st9" v:langID="1033"><v:paragraph v:horizAlign="1"/><v:tabList/>lme4</text>		</g>
		<g id="shape10-93" v:mID="10" v:groupContext="shape" transform="translate(509.4,-299.4)">
			<title>Circle.10</title>
			<desc>zoo</desc>
			<v:userDefs>
				<v:ud v:nameU="visVersion" v:val="VT0(14):26"/>
			</v:userDefs>
			<v:textBlock v:margins="rect(4,4,4,4)"/>
			<v:textRect cx="36" cy="576" width="63.01" height="54"/>
			<path d="M0 576 A36 36 0 0 1 72 576 A36 36 0 1 1 0 576 Z" class="st8"/>
			<text x="24.4" y="580.8" class="st9" v:langID="1033"><v:paragraph v:horizAlign="1"/><v:tabList/>zoo</text>		</g>
		<g id="shape11-96" v:mID="11" v:groupContext="shape" transform="translate(547.2,-504)">
			<title>Circle.11</title>
			<desc>gamm4</desc>
			<v:userDefs>
				<v:ud v:nameU="visVersion" v:val="VT0(14):26"/>
			</v:userDefs>
			<v:textBlock v:margins="rect(4,4,4,4)"/>
			<v:textRect cx="36" cy="576" width="63.01" height="54"/>
			<path d="M0 576 A36 36 0 0 1 72 576 A36 36 0 1 1 0 576 Z" class="st8"/>
			<text x="11.57" y="580.8" class="st9" v:langID="1033"><v:paragraph v:horizAlign="1"/><v:tabList/>gamm4</text>		</g>
		<g id="shape12-99" v:mID="12" v:groupContext="shape" transform="translate(619.2,-424.8)">
			<title>Circle.12</title>
			<desc>mi</desc>
			<v:userDefs>
				<v:ud v:nameU="visVersion" v:val="VT0(14):26"/>
			</v:userDefs>
			<v:textBlock v:margins="rect(4,4,4,4)"/>
			<v:textRect cx="36" cy="576" width="63.01" height="54"/>
			<path d="M0 576 A36 36 0 0 1 72 576 A36 36 0 1 1 0 576 Z" class="st8"/>
			<text x="27.77" y="580.8" class="st9" v:langID="1033"><v:paragraph v:horizAlign="1"/><v:tabList/>mi</text>		</g>
		<g id="shape13-102" v:mID="13" v:groupContext="shape" transform="translate(137.7,-460.8)">
			<title>Circle.13</title>
			<desc>ggmap</desc>
			<v:userDefs>
				<v:ud v:nameU="visVersion" v:val="VT0(14):26"/>
			</v:userDefs>
			<v:textBlock v:margins="rect(4,4,4,4)"/>
			<v:textRect cx="36" cy="576" width="63.01" height="54"/>
			<path d="M0 576 A36 36 0 0 1 72 576 A36 36 0 1 1 0 576 Z" class="st8"/>
			<text x="14.04" y="580.8" class="st9" v:langID="1033"><v:paragraph v:horizAlign="1"/><v:tabList/>ggmap</text>		</g>
		<g id="shape14-105" v:mID="14" v:groupContext="shape" transform="translate(432,-522)">
			<title>Circle.14</title>
			<desc>coda</desc>
			<v:userDefs>
				<v:ud v:nameU="visVersion" v:val="VT0(14):26"/>
			</v:userDefs>
			<v:textBlock v:margins="rect(4,4,4,4)"/>
			<v:textRect cx="36" cy="576" width="63.01" height="54"/>
			<path d="M0 576 A36 36 0 0 1 72 576 A36 36 0 1 1 0 576 Z" class="st8"/>
			<text x="20.36" y="580.8" class="st9" v:langID="1033"><v:paragraph v:horizAlign="1"/><v:tabList/>coda</text>		</g>
		<g id="shape15-108" v:mID="15" v:groupContext="shape" transform="translate(316.8,-522)">
			<title>Circle.15</title>
			<desc>iCluster</desc>
			<v:userDefs>
				<v:ud v:nameU="visVersion" v:val="VT0(14):26"/>
			</v:userDefs>
			<v:textBlock v:margins="rect(4,4,4,4)"/>
			<v:textRect cx="36" cy="576" width="63.01" height="54"/>
			<path d="M0 576 A36 36 0 0 1 72 576 A36 36 0 1 1 0 576 Z" class="st8"/>
			<text x="11.28" y="580.8" class="st9" v:langID="1033"><v:paragraph v:horizAlign="1"/><v:tabList/>iCluster</text>		</g>
		<g id="shape16-111" v:mID="16" v:groupContext="shape" v:layerMember="0" transform="translate(209.7,-496.8)">
			<title>Dynamic connector</title>
			<path d="M0 612 L13.5 612 L13.5 684 L42.3 684" class="st10"/>
		</g>
		<g id="shape17-114" v:mID="17" v:groupContext="shape" v:layerMember="0" transform="translate(352.8,-522)">
			<title>Dynamic connector.17</title>
			<path d="M0 612 L0 624.24 L49.5 624.24 L49.5 646.2" class="st10"/>
		</g>
		<g id="shape18-117" v:mID="18" v:groupContext="shape" v:layerMember="0" transform="translate(468,-522)">
			<title>Dynamic connector.18</title>
			<path d="M0 612 L0 624.24 L-65.7 624.24 L-65.7 646.2" class="st10"/>
		</g>
		<g id="shape19-120" v:mID="19" v:groupContext="shape" v:layerMember="0" transform="translate(554.4,-424.8)">
			<title>Dynamic connector.19</title>
			<path d="M0 612 L28.8 612 L28.8 532.8" class="st10"/>
		</g>
		<g id="shape21-123" v:mID="21" v:groupContext="shape" v:layerMember="0" transform="translate(554.4,-424.8)">
			<title>Dynamic connector.21</title>
			<path d="M0 612 L28.8 612 L28.8 576 L64.8 576" class="st10"/>
		</g>
		<g id="shape20-126" v:mID="20" v:groupContext="shape" transform="translate(633.6,-504)">
			<title>Sheet.20</title>
			<desc>…4,000 +</desc>
			<v:textBlock v:margins="rect(4,4,4,4)"/>
			<v:textRect cx="64.8" cy="574.971" width="129.6" height="74.0571"/>
			<rect x="0" y="537.943" width="129.6" height="74.0571" class="st11"/>
			<text x="9.43" y="583.97" class="st12" v:langID="1033"><v:paragraph v:horizAlign="1"/><v:tabList/>…4,000 +</text>		</g>
		<g id="shape22-129" v:mID="22" v:groupContext="shape" transform="translate(139.5,-165.6)">
			<title>Rectangle</title>
			<desc>Front Ends (Text Editors, IDEs, GUIs) Vim Emacs + ESS Eclipse...</desc>
			<v:userDefs>
				<v:ud v:nameU="visVersion" v:val="VT0(14):26"/>
			</v:userDefs>
			<v:textBlock v:margins="rect(4,4,4,4)"/>
			<v:textRect cx="262.8" cy="576" width="525.6" height="72"/>
			<rect x="0" y="540" width="525.6" height="72" class="st8"/>
			<text x="127.81" y="561.6" class="st6" v:langID="1033"><v:paragraph v:horizAlign="1"/><v:tabList/>Front Ends<tspan
						class="st13"> </tspan><tspan class="st14">(</tspan><tspan class="st14">Text Editors</tspan><tspan
						class="st14">, </tspan><tspan class="st14">IDEs</tspan><tspan class="st14">, </tspan><tspan class="st14">GUIs</tspan><tspan
						class="st14">)<v:lf/><v:newlineChar/></tspan><tspan x="7.17" dy="2.5em" class="st15">Vim          Emacs </tspan><tspan
						class="st15">+ </tspan><tspan class="st15">ESS          Eclipse </tspan><tspan class="st15">+ </tspan><tspan
						class="st15">StatET          Rstudio          Deducer</tspan></text>		</g>
		<g id="group23-145" transform="translate(139.5,-57.6)" v:mID="23" v:groupContext="group">
			<v:custProps>
				<v:cp v:nameU="Name" v:lbl="Name" v:type="0" v:invis="false" v:ask="false" v:langID="1033"/>
				<v:cp v:nameU="Location" v:lbl="Location" v:type="0" v:invis="false" v:ask="false" v:langID="1033"/>
				<v:cp v:nameU="Building" v:lbl="Building" v:type="0" v:invis="false" v:ask="false" v:langID="1033"/>
				<v:cp v:nameU="Room" v:lbl="Room" v:type="0" v:invis="false" v:ask="false" v:langID="1033"/>
				<v:cp v:nameU="Department" v:lbl="Department" v:type="0" v:invis="false" v:ask="false" v:langID="1033"/>
				<v:cp v:nameU="ShapeClass" v:lbl="ShapeClass" v:type="0" v:invis="true" v:ask="false" v:langID="1033"
						v:val="VT4(Connectivity)"/>
				<v:cp v:nameU="ShapeType" v:lbl="ShapeType" v:type="0" v:invis="true" v:ask="false" v:langID="1033"
						v:val="VT4(User)"/>
			</v:custProps>
			<v:userDefs>
				<v:ud v:nameU="HasText" v:val="VT0(0):5"/>
				<v:ud v:nameU="ShapeClass" v:val="VT0(4):26"/>
				<v:ud v:nameU="ShapeType" v:val="VT0(4):26"/>
				<v:ud v:nameU="SolSH" v:val="VT14({BF0433D9-CD73-4EB5-8390-8653BE590246}):41"/>
				<v:ud v:nameU="visLegendShape" v:val="VT0(2):26"/>
				<v:ud v:nameU="visVersion" v:prompt="" v:val="VT0(14):26"/>
			</v:userDefs>
			<title>User</title>
			<g id="shape24-146" v:mID="24" v:groupContext="shape" transform="translate(-6.44072,0)">
				<title>Sheet.24</title>
				<path d="M13.83 565.13 A23.7001 22.6009 -90 0 0 0 585.85 L0.07 595.57 A7.70205 8.07667 -180 0 0 2.95 601.98 A2.96603
							 3.11029 -180 0 0 6.25 602.55 A3.96915 4.1622 -180 0 0 8.14 605.71 A56.306 53.6944 -90 0 0 33.47 612
							 A18.1982 17.3541 -90 0 0 41.63 609.72 A2.81359 2.95044 -180 0 0 44.9 610.28 A11.6303 12.196 -180 0 0
							 50.37 604.28 L50.37 587.14 A22.1557 23.2333 -180 0 0 36.58 566.82 L36.45 566.81 A14.9838 15.7126 -180
							 1 0 13.85 565.13 L13.83 565.13 Z" class="st16"/>
				<path d="M13.83 565.13 A23.7001 22.6009 -90 0 0 0 585.85 L0.07 595.57 A7.70205 8.07667 -180 0 0 2.95 601.98 A2.96603
							 3.11029 -180 0 0 6.25 602.55 A3.96915 4.1622 -180 0 0 8.14 605.71 A56.306 53.6944 -90 0 0 33.47 612
							 A18.1982 17.3541 -90 0 0 41.63 609.72 A2.81359 2.95044 -180 0 0 44.9 610.28 A11.6303 12.196 -180 0 0
							 50.37 604.28 L50.37 587.14 A22.1557 23.2333 -180 0 0 36.58 566.82 L36.45 566.81 A14.9838 15.7126 -180
							 1 0 13.85 565.13" class="st17"/>
			</g>
			<g id="shape25-149" v:mID="25" v:groupContext="shape" transform="translate(0.0341057,-7.95808E-013)">
				<title>Sheet.25</title>
				<path d="M8.14 605.71 A53.6944 56.306 -180 0 0 33.47 612 A17.3541 18.1982 -180 0 0 41.63 609.72 A2.81359 2.95044
							 -180 0 0 44.9 610.28 A11.6303 12.196 -180 0 0 50.37 604.28 L50.37 587.14 A22.1557 23.2333 -180 0 0 36.58
							 566.82 L13.83 565.13 A22.6009 23.7001 -180 0 0 -0 585.85 L0.07 595.57 A7.70205 8.07667 -180 0 0 2.95
							 601.98 A2.96603 3.11029 -180 0 0 6.25 602.55 A3.96915 4.1622 -180 0 0 8.14 605.71 Z" class="st18"/>
				<path d="M8.14 605.71 A53.6944 56.306 -180 0 0 33.47 612 A17.3541 18.1982 -180 0 0 41.63 609.72 A2.81359 2.95044
							 -180 0 0 44.9 610.28 A11.6303 12.196 -180 0 0 50.37 604.28 L50.37 587.14 A22.1557 23.2333 -180 0 0 36.58
							 566.82M13.83 565.13 A22.6009 23.7001 -180 0 0 -0 585.85 L0.07 595.57 A7.70205 8.07667 -180 0 0 2.95
							 601.98 A2.96603 3.11029 -180 0 0 6.25 602.55 A3.96915 4.1622 -180 0 0 8.14 605.71" class="st19"/>
			</g>
			<g id="shape26-154" v:mID="26" v:groupContext="shape" transform="translate(10.8973,-40.5749)">
				<title>Sheet.26</title>
				<ellipse cx="14.9838" cy="596.287" rx="14.9838" ry="15.7126" class="st20"/>
			</g>
			<g id="shape27-157" v:mID="27" v:groupContext="shape" transform="translate(-598.455,508.532) rotate(-81.1625)">
				<title>Sheet.27</title>
				<path d="M0 612 A55.5612 55.1945 0 0 1 30.06 612" class="st21"/>
			</g>
			<g id="shape28-161" v:mID="28" v:groupContext="shape" transform="translate(-567.714,652.041) rotate(-93.9726)">
				<title>Sheet.28</title>
				<path d="M-0 610.85 A107.577 106.767 -180 0 0 31.52 610.85" class="st21"/>
			</g>
			<g id="shape29-165" v:mID="29" v:groupContext="shape" transform="translate(13.8941,-40.8395)">
				<title>Sheet.29</title>
				<path d="M-0 605.7 A15.012 15.7422 -180 0 0 22.63 607.39" class="st21"/>
			</g>
			<g id="shape30-169" v:mID="30" v:groupContext="shape" transform="translate(0.0341057,0)">
				<title>Sheet.30</title>
				<path d="M13.83 565.13 A23.0589 24.1804 -180 0 0 0 585.86 L0.07 595.57 A7.70205 8.07667 -180 0 0 2.95 601.98 A2.96603
							 3.11029 -180 0 0 6.25 602.55 A3.96915 4.1622 -180 0 0 8.14 605.71 A53.6944 56.306 -180 0 0 33.47 612
							 A17.3541 18.1982 -180 0 0 41.63 609.72 A2.81359 2.95044 -180 0 0 44.9 610.28 A11.6303 12.196 -180 0
							 0 50.37 604.28 L50.37 588.73 A21.9347 23.0016 -180 0 0 36.58 566.82 L36.45 566.81 A14.9897 15.7187 -180
							 1 0 13.83 565.13" class="st22"/>
			</g>
		</g>
		<g id="group31-172" transform="translate(237.6,-57.6)" v:mID="31" v:groupContext="group">
			<v:custProps>
				<v:cp v:nameU="Name" v:lbl="Name" v:type="0" v:invis="false" v:ask="false" v:langID="1033"/>
				<v:cp v:nameU="Location" v:lbl="Location" v:type="0" v:invis="false" v:ask="false" v:langID="1033"/>
				<v:cp v:nameU="Building" v:lbl="Building" v:type="0" v:invis="false" v:ask="false" v:langID="1033"/>
				<v:cp v:nameU="Room" v:lbl="Room" v:type="0" v:invis="false" v:ask="false" v:langID="1033"/>
				<v:cp v:nameU="Department" v:lbl="Department" v:type="0" v:invis="false" v:ask="false" v:langID="1033"/>
				<v:cp v:nameU="ShapeClass" v:lbl="ShapeClass" v:type="0" v:invis="true" v:ask="false" v:langID="1033"
						v:val="VT4(Connectivity)"/>
				<v:cp v:nameU="ShapeType" v:lbl="ShapeType" v:type="0" v:invis="true" v:ask="false" v:langID="1033"
						v:val="VT4(User)"/>
			</v:custProps>
			<v:userDefs>
				<v:ud v:nameU="HasText" v:val="VT0(0):5"/>
				<v:ud v:nameU="ShapeClass" v:val="VT0(4):26"/>
				<v:ud v:nameU="ShapeType" v:val="VT0(4):26"/>
				<v:ud v:nameU="SolSH" v:val="VT14({BF0433D9-CD73-4EB5-8390-8653BE590246}):41"/>
				<v:ud v:nameU="visLegendShape" v:val="VT0(2):26"/>
				<v:ud v:nameU="visVersion" v:prompt="" v:val="VT0(14):26"/>
			</v:userDefs>
			<title>User.31</title>
			<g id="shape32-173" v:mID="32" v:groupContext="shape" transform="translate(-6.44072,0)">
				<title>Sheet.32</title>
				<path d="M13.83 565.13 A23.7001 22.6009 -90 0 0 0 585.85 L0.07 595.57 A7.70205 8.07667 -180 0 0 2.95 601.98 A2.96603
							 3.11029 -180 0 0 6.25 602.55 A3.96915 4.1622 -180 0 0 8.14 605.71 A56.306 53.6944 -90 0 0 33.47 612
							 A18.1982 17.3541 -90 0 0 41.63 609.72 A2.81359 2.95044 -180 0 0 44.9 610.28 A11.6303 12.196 -180 0 0
							 50.37 604.28 L50.37 587.14 A22.1557 23.2333 -180 0 0 36.58 566.82 L36.45 566.81 A14.9838 15.7126 -180
							 1 0 13.85 565.13 L13.83 565.13 Z" class="st16"/>
				<path d="M13.83 565.13 A23.7001 22.6009 -90 0 0 0 585.85 L0.07 595.57 A7.70205 8.07667 -180 0 0 2.95 601.98 A2.96603
							 3.11029 -180 0 0 6.25 602.55 A3.96915 4.1622 -180 0 0 8.14 605.71 A56.306 53.6944 -90 0 0 33.47 612
							 A18.1982 17.3541 -90 0 0 41.63 609.72 A2.81359 2.95044 -180 0 0 44.9 610.28 A11.6303 12.196 -180 0 0
							 50.37 604.28 L50.37 587.14 A22.1557 23.2333 -180 0 0 36.58 566.82 L36.45 566.81 A14.9838 15.7126 -180
							 1 0 13.85 565.13" class="st17"/>
			</g>
			<g id="shape33-176" v:mID="33" v:groupContext="shape" transform="translate(0.0341057,-7.95808E-013)">
				<title>Sheet.33</title>
				<path d="M8.14 605.71 A53.6944 56.306 -180 0 0 33.47 612 A17.3541 18.1982 -180 0 0 41.63 609.72 A2.81359 2.95044
							 -180 0 0 44.9 610.28 A11.6303 12.196 -180 0 0 50.37 604.28 L50.37 587.14 A22.1557 23.2333 -180 0 0 36.58
							 566.82 L13.83 565.13 A22.6009 23.7001 -180 0 0 -0 585.85 L0.07 595.57 A7.70205 8.07667 -180 0 0 2.95
							 601.98 A2.96603 3.11029 -180 0 0 6.25 602.55 A3.96915 4.1622 -180 0 0 8.14 605.71 Z" class="st18"/>
				<path d="M8.14 605.71 A53.6944 56.306 -180 0 0 33.47 612 A17.3541 18.1982 -180 0 0 41.63 609.72 A2.81359 2.95044
							 -180 0 0 44.9 610.28 A11.6303 12.196 -180 0 0 50.37 604.28 L50.37 587.14 A22.1557 23.2333 -180 0 0 36.58
							 566.82M13.83 565.13 A22.6009 23.7001 -180 0 0 -0 585.85 L0.07 595.57 A7.70205 8.07667 -180 0 0 2.95
							 601.98 A2.96603 3.11029 -180 0 0 6.25 602.55 A3.96915 4.1622 -180 0 0 8.14 605.71" class="st19"/>
			</g>
			<g id="shape34-180" v:mID="34" v:groupContext="shape" transform="translate(10.8973,-40.5749)">
				<title>Sheet.34</title>
				<ellipse cx="14.9838" cy="596.287" rx="14.9838" ry="15.7126" class="st20"/>
			</g>
			<g id="shape35-183" v:mID="35" v:groupContext="shape" transform="translate(-598.455,508.532) rotate(-81.1625)">
				<title>Sheet.35</title>
				<path d="M0 612 A55.5612 55.1945 0 0 1 30.06 612" class="st21"/>
			</g>
			<g id="shape36-187" v:mID="36" v:groupContext="shape" transform="translate(-567.714,652.041) rotate(-93.9726)">
				<title>Sheet.36</title>
				<path d="M-0 610.85 A107.577 106.767 -180 0 0 31.52 610.85" class="st21"/>
			</g>
			<g id="shape37-191" v:mID="37" v:groupContext="shape" transform="translate(13.8941,-40.8395)">
				<title>Sheet.37</title>
				<path d="M-0 605.7 A15.012 15.7422 -180 0 0 22.63 607.39" class="st21"/>
			</g>
			<g id="shape38-195" v:mID="38" v:groupContext="shape" transform="translate(0.0341057,0)">
				<title>Sheet.38</title>
				<path d="M13.83 565.13 A23.0589 24.1804 -180 0 0 0 585.86 L0.07 595.57 A7.70205 8.07667 -180 0 0 2.95 601.98 A2.96603
							 3.11029 -180 0 0 6.25 602.55 A3.96915 4.1622 -180 0 0 8.14 605.71 A53.6944 56.306 -180 0 0 33.47 612
							 A17.3541 18.1982 -180 0 0 41.63 609.72 A2.81359 2.95044 -180 0 0 44.9 610.28 A11.6303 12.196 -180 0
							 0 50.37 604.28 L50.37 588.73 A21.9347 23.0016 -180 0 0 36.58 566.82 L36.45 566.81 A14.9897 15.7187 -180
							 1 0 13.83 565.13" class="st22"/>
			</g>
		</g>
		<g id="group39-198" transform="translate(377.1,-57.6)" v:mID="39" v:groupContext="group">
			<v:custProps>
				<v:cp v:nameU="Name" v:lbl="Name" v:type="0" v:invis="false" v:ask="false" v:langID="1033"/>
				<v:cp v:nameU="Location" v:lbl="Location" v:type="0" v:invis="false" v:ask="false" v:langID="1033"/>
				<v:cp v:nameU="Building" v:lbl="Building" v:type="0" v:invis="false" v:ask="false" v:langID="1033"/>
				<v:cp v:nameU="Room" v:lbl="Room" v:type="0" v:invis="false" v:ask="false" v:langID="1033"/>
				<v:cp v:nameU="Department" v:lbl="Department" v:type="0" v:invis="false" v:ask="false" v:langID="1033"/>
				<v:cp v:nameU="ShapeClass" v:lbl="ShapeClass" v:type="0" v:invis="true" v:ask="false" v:langID="1033"
						v:val="VT4(Connectivity)"/>
				<v:cp v:nameU="ShapeType" v:lbl="ShapeType" v:type="0" v:invis="true" v:ask="false" v:langID="1033"
						v:val="VT4(User)"/>
			</v:custProps>
			<v:userDefs>
				<v:ud v:nameU="HasText" v:val="VT0(0):5"/>
				<v:ud v:nameU="ShapeClass" v:val="VT0(4):26"/>
				<v:ud v:nameU="ShapeType" v:val="VT0(4):26"/>
				<v:ud v:nameU="SolSH" v:val="VT14({BF0433D9-CD73-4EB5-8390-8653BE590246}):41"/>
				<v:ud v:nameU="visLegendShape" v:val="VT0(2):26"/>
				<v:ud v:nameU="visVersion" v:prompt="" v:val="VT0(14):26"/>
			</v:userDefs>
			<title>User.39</title>
			<g id="shape40-199" v:mID="40" v:groupContext="shape" transform="translate(-6.44072,0)">
				<title>Sheet.40</title>
				<path d="M13.83 565.13 A23.7001 22.6009 -90 0 0 0 585.85 L0.07 595.57 A7.70205 8.07667 -180 0 0 2.95 601.98 A2.96603
							 3.11029 -180 0 0 6.25 602.55 A3.96915 4.1622 -180 0 0 8.14 605.71 A56.306 53.6944 -90 0 0 33.47 612
							 A18.1982 17.3541 -90 0 0 41.63 609.72 A2.81359 2.95044 -180 0 0 44.9 610.28 A11.6303 12.196 -180 0 0
							 50.37 604.28 L50.37 587.14 A22.1557 23.2333 -180 0 0 36.58 566.82 L36.45 566.81 A14.9838 15.7126 -180
							 1 0 13.85 565.13 L13.83 565.13 Z" class="st16"/>
				<path d="M13.83 565.13 A23.7001 22.6009 -90 0 0 0 585.85 L0.07 595.57 A7.70205 8.07667 -180 0 0 2.95 601.98 A2.96603
							 3.11029 -180 0 0 6.25 602.55 A3.96915 4.1622 -180 0 0 8.14 605.71 A56.306 53.6944 -90 0 0 33.47 612
							 A18.1982 17.3541 -90 0 0 41.63 609.72 A2.81359 2.95044 -180 0 0 44.9 610.28 A11.6303 12.196 -180 0 0
							 50.37 604.28 L50.37 587.14 A22.1557 23.2333 -180 0 0 36.58 566.82 L36.45 566.81 A14.9838 15.7126 -180
							 1 0 13.85 565.13" class="st17"/>
			</g>
			<g id="shape41-202" v:mID="41" v:groupContext="shape" transform="translate(0.0341057,-7.95808E-013)">
				<title>Sheet.41</title>
				<path d="M8.14 605.71 A53.6944 56.306 -180 0 0 33.47 612 A17.3541 18.1982 -180 0 0 41.63 609.72 A2.81359 2.95044
							 -180 0 0 44.9 610.28 A11.6303 12.196 -180 0 0 50.37 604.28 L50.37 587.14 A22.1557 23.2333 -180 0 0 36.58
							 566.82 L13.83 565.13 A22.6009 23.7001 -180 0 0 -0 585.85 L0.07 595.57 A7.70205 8.07667 -180 0 0 2.95
							 601.98 A2.96603 3.11029 -180 0 0 6.25 602.55 A3.96915 4.1622 -180 0 0 8.14 605.71 Z" class="st18"/>
				<path d="M8.14 605.71 A53.6944 56.306 -180 0 0 33.47 612 A17.3541 18.1982 -180 0 0 41.63 609.72 A2.81359 2.95044
							 -180 0 0 44.9 610.28 A11.6303 12.196 -180 0 0 50.37 604.28 L50.37 587.14 A22.1557 23.2333 -180 0 0 36.58
							 566.82M13.83 565.13 A22.6009 23.7001 -180 0 0 -0 585.85 L0.07 595.57 A7.70205 8.07667 -180 0 0 2.95
							 601.98 A2.96603 3.11029 -180 0 0 6.25 602.55 A3.96915 4.1622 -180 0 0 8.14 605.71" class="st19"/>
			</g>
			<g id="shape42-206" v:mID="42" v:groupContext="shape" transform="translate(10.8973,-40.5749)">
				<title>Sheet.42</title>
				<ellipse cx="14.9838" cy="596.287" rx="14.9838" ry="15.7126" class="st20"/>
			</g>
			<g id="shape43-209" v:mID="43" v:groupContext="shape" transform="translate(-598.455,508.532) rotate(-81.1625)">
				<title>Sheet.43</title>
				<path d="M0 612 A55.5612 55.1945 0 0 1 30.06 612" class="st21"/>
			</g>
			<g id="shape44-213" v:mID="44" v:groupContext="shape" transform="translate(-567.714,652.041) rotate(-93.9726)">
				<title>Sheet.44</title>
				<path d="M-0 610.85 A107.577 106.767 -180 0 0 31.52 610.85" class="st21"/>
			</g>
			<g id="shape45-217" v:mID="45" v:groupContext="shape" transform="translate(13.8941,-40.8395)">
				<title>Sheet.45</title>
				<path d="M-0 605.7 A15.012 15.7422 -180 0 0 22.63 607.39" class="st21"/>
			</g>
			<g id="shape46-221" v:mID="46" v:groupContext="shape" transform="translate(0.0341057,0)">
				<title>Sheet.46</title>
				<path d="M13.83 565.13 A23.0589 24.1804 -180 0 0 0 585.86 L0.07 595.57 A7.70205 8.07667 -180 0 0 2.95 601.98 A2.96603
							 3.11029 -180 0 0 6.25 602.55 A3.96915 4.1622 -180 0 0 8.14 605.71 A53.6944 56.306 -180 0 0 33.47 612
							 A17.3541 18.1982 -180 0 0 41.63 609.72 A2.81359 2.95044 -180 0 0 44.9 610.28 A11.6303 12.196 -180 0
							 0 50.37 604.28 L50.37 588.73 A21.9347 23.0016 -180 0 0 36.58 566.82 L36.45 566.81 A14.9897 15.7187 -180
							 1 0 13.83 565.13" class="st22"/>
			</g>
		</g>
		<g id="group47-224" transform="translate(496.8,-57.6)" v:mID="47" v:groupContext="group">
			<v:custProps>
				<v:cp v:nameU="Name" v:lbl="Name" v:type="0" v:invis="false" v:ask="false" v:langID="1033"/>
				<v:cp v:nameU="Location" v:lbl="Location" v:type="0" v:invis="false" v:ask="false" v:langID="1033"/>
				<v:cp v:nameU="Building" v:lbl="Building" v:type="0" v:invis="false" v:ask="false" v:langID="1033"/>
				<v:cp v:nameU="Room" v:lbl="Room" v:type="0" v:invis="false" v:ask="false" v:langID="1033"/>
				<v:cp v:nameU="Department" v:lbl="Department" v:type="0" v:invis="false" v:ask="false" v:langID="1033"/>
				<v:cp v:nameU="ShapeClass" v:lbl="ShapeClass" v:type="0" v:invis="true" v:ask="false" v:langID="1033"
						v:val="VT4(Connectivity)"/>
				<v:cp v:nameU="ShapeType" v:lbl="ShapeType" v:type="0" v:invis="true" v:ask="false" v:langID="1033"
						v:val="VT4(User)"/>
			</v:custProps>
			<v:userDefs>
				<v:ud v:nameU="HasText" v:val="VT0(0):5"/>
				<v:ud v:nameU="ShapeClass" v:val="VT0(4):26"/>
				<v:ud v:nameU="ShapeType" v:val="VT0(4):26"/>
				<v:ud v:nameU="SolSH" v:val="VT14({BF0433D9-CD73-4EB5-8390-8653BE590246}):41"/>
				<v:ud v:nameU="visLegendShape" v:val="VT0(2):26"/>
				<v:ud v:nameU="visVersion" v:prompt="" v:val="VT0(14):26"/>
			</v:userDefs>
			<title>User.47</title>
			<g id="shape48-225" v:mID="48" v:groupContext="shape" transform="translate(-6.44072,0)">
				<title>Sheet.48</title>
				<path d="M13.83 565.13 A23.7001 22.6009 -90 0 0 0 585.85 L0.07 595.57 A7.70205 8.07667 -180 0 0 2.95 601.98 A2.96603
							 3.11029 -180 0 0 6.25 602.55 A3.96915 4.1622 -180 0 0 8.14 605.71 A56.306 53.6944 -90 0 0 33.47 612
							 A18.1982 17.3541 -90 0 0 41.63 609.72 A2.81359 2.95044 -180 0 0 44.9 610.28 A11.6303 12.196 -180 0 0
							 50.37 604.28 L50.37 587.14 A22.1557 23.2333 -180 0 0 36.58 566.82 L36.45 566.81 A14.9838 15.7126 -180
							 1 0 13.85 565.13 L13.83 565.13 Z" class="st16"/>
				<path d="M13.83 565.13 A23.7001 22.6009 -90 0 0 0 585.85 L0.07 595.57 A7.70205 8.07667 -180 0 0 2.95 601.98 A2.96603
							 3.11029 -180 0 0 6.25 602.55 A3.96915 4.1622 -180 0 0 8.14 605.71 A56.306 53.6944 -90 0 0 33.47 612
							 A18.1982 17.3541 -90 0 0 41.63 609.72 A2.81359 2.95044 -180 0 0 44.9 610.28 A11.6303 12.196 -180 0 0
							 50.37 604.28 L50.37 587.14 A22.1557 23.2333 -180 0 0 36.58 566.82 L36.45 566.81 A14.9838 15.7126 -180
							 1 0 13.85 565.13" class="st17"/>
			</g>
			<g id="shape49-228" v:mID="49" v:groupContext="shape" transform="translate(0.0341057,-7.95808E-013)">
				<title>Sheet.49</title>
				<path d="M8.14 605.71 A53.6944 56.306 -180 0 0 33.47 612 A17.3541 18.1982 -180 0 0 41.63 609.72 A2.81359 2.95044
							 -180 0 0 44.9 610.28 A11.6303 12.196 -180 0 0 50.37 604.28 L50.37 587.14 A22.1557 23.2333 -180 0 0 36.58
							 566.82 L13.83 565.13 A22.6009 23.7001 -180 0 0 -0 585.85 L0.07 595.57 A7.70205 8.07667 -180 0 0 2.95
							 601.98 A2.96603 3.11029 -180 0 0 6.25 602.55 A3.96915 4.1622 -180 0 0 8.14 605.71 Z" class="st18"/>
				<path d="M8.14 605.71 A53.6944 56.306 -180 0 0 33.47 612 A17.3541 18.1982 -180 0 0 41.63 609.72 A2.81359 2.95044
							 -180 0 0 44.9 610.28 A11.6303 12.196 -180 0 0 50.37 604.28 L50.37 587.14 A22.1557 23.2333 -180 0 0 36.58
							 566.82M13.83 565.13 A22.6009 23.7001 -180 0 0 -0 585.85 L0.07 595.57 A7.70205 8.07667 -180 0 0 2.95
							 601.98 A2.96603 3.11029 -180 0 0 6.25 602.55 A3.96915 4.1622 -180 0 0 8.14 605.71" class="st19"/>
			</g>
			<g id="shape50-232" v:mID="50" v:groupContext="shape" transform="translate(10.8973,-40.5749)">
				<title>Sheet.50</title>
				<ellipse cx="14.9838" cy="596.287" rx="14.9838" ry="15.7126" class="st20"/>
			</g>
			<g id="shape51-235" v:mID="51" v:groupContext="shape" transform="translate(-598.455,508.532) rotate(-81.1625)">
				<title>Sheet.51</title>
				<path d="M0 612 A55.5612 55.1945 0 0 1 30.06 612" class="st21"/>
			</g>
			<g id="shape52-239" v:mID="52" v:groupContext="shape" transform="translate(-567.714,652.041) rotate(-93.9726)">
				<title>Sheet.52</title>
				<path d="M-0 610.85 A107.577 106.767 -180 0 0 31.52 610.85" class="st21"/>
			</g>
			<g id="shape53-243" v:mID="53" v:groupContext="shape" transform="translate(13.8941,-40.8395)">
				<title>Sheet.53</title>
				<path d="M-0 605.7 A15.012 15.7422 -180 0 0 22.63 607.39" class="st21"/>
			</g>
			<g id="shape54-247" v:mID="54" v:groupContext="shape" transform="translate(0.0341057,0)">
				<title>Sheet.54</title>
				<path d="M13.83 565.13 A23.0589 24.1804 -180 0 0 0 585.86 L0.07 595.57 A7.70205 8.07667 -180 0 0 2.95 601.98 A2.96603
							 3.11029 -180 0 0 6.25 602.55 A3.96915 4.1622 -180 0 0 8.14 605.71 A53.6944 56.306 -180 0 0 33.47 612
							 A17.3541 18.1982 -180 0 0 41.63 609.72 A2.81359 2.95044 -180 0 0 44.9 610.28 A11.6303 12.196 -180 0
							 0 50.37 604.28 L50.37 588.73 A21.9347 23.0016 -180 0 0 36.58 566.82 L36.45 566.81 A14.9897 15.7187 -180
							 1 0 13.83 565.13" class="st22"/>
			</g>
		</g>
		<g id="group63-250" transform="translate(614.7,-57.6)" v:mID="63" v:groupContext="group">
			<v:custProps>
				<v:cp v:nameU="Name" v:lbl="Name" v:type="0" v:invis="false" v:ask="false" v:langID="1033"/>
				<v:cp v:nameU="Location" v:lbl="Location" v:type="0" v:invis="false" v:ask="false" v:langID="1033"/>
				<v:cp v:nameU="Building" v:lbl="Building" v:type="0" v:invis="false" v:ask="false" v:langID="1033"/>
				<v:cp v:nameU="Room" v:lbl="Room" v:type="0" v:invis="false" v:ask="false" v:langID="1033"/>
				<v:cp v:nameU="Department" v:lbl="Department" v:type="0" v:invis="false" v:ask="false" v:langID="1033"/>
				<v:cp v:nameU="ShapeClass" v:lbl="ShapeClass" v:type="0" v:invis="true" v:ask="false" v:langID="1033"
						v:val="VT4(Connectivity)"/>
				<v:cp v:nameU="ShapeType" v:lbl="ShapeType" v:type="0" v:invis="true" v:ask="false" v:langID="1033"
						v:val="VT4(User)"/>
			</v:custProps>
			<v:userDefs>
				<v:ud v:nameU="HasText" v:val="VT0(0):5"/>
				<v:ud v:nameU="ShapeClass" v:val="VT0(4):26"/>
				<v:ud v:nameU="ShapeType" v:val="VT0(4):26"/>
				<v:ud v:nameU="SolSH" v:val="VT14({BF0433D9-CD73-4EB5-8390-8653BE590246}):41"/>
				<v:ud v:nameU="visLegendShape" v:val="VT0(2):26"/>
				<v:ud v:nameU="visVersion" v:prompt="" v:val="VT0(14):26"/>
			</v:userDefs>
			<title>User.63</title>
			<g id="shape64-251" v:mID="64" v:groupContext="shape" transform="translate(-6.44072,0)">
				<title>Sheet.64</title>
				<path d="M13.83 565.13 A23.7001 22.6009 -90 0 0 0 585.85 L0.07 595.57 A7.70205 8.07667 -180 0 0 2.95 601.98 A2.96603
							 3.11029 -180 0 0 6.25 602.55 A3.96915 4.1622 -180 0 0 8.14 605.71 A56.306 53.6944 -90 0 0 33.47 612
							 A18.1982 17.3541 -90 0 0 41.63 609.72 A2.81359 2.95044 -180 0 0 44.9 610.28 A11.6303 12.196 -180 0 0
							 50.37 604.28 L50.37 587.14 A22.1557 23.2333 -180 0 0 36.58 566.82 L36.45 566.81 A14.9838 15.7126 -180
							 1 0 13.85 565.13 L13.83 565.13 Z" class="st16"/>
				<path d="M13.83 565.13 A23.7001 22.6009 -90 0 0 0 585.85 L0.07 595.57 A7.70205 8.07667 -180 0 0 2.95 601.98 A2.96603
							 3.11029 -180 0 0 6.25 602.55 A3.96915 4.1622 -180 0 0 8.14 605.71 A56.306 53.6944 -90 0 0 33.47 612
							 A18.1982 17.3541 -90 0 0 41.63 609.72 A2.81359 2.95044 -180 0 0 44.9 610.28 A11.6303 12.196 -180 0 0
							 50.37 604.28 L50.37 587.14 A22.1557 23.2333 -180 0 0 36.58 566.82 L36.45 566.81 A14.9838 15.7126 -180
							 1 0 13.85 565.13" class="st17"/>
			</g>
			<g id="shape65-254" v:mID="65" v:groupContext="shape" transform="translate(0.0341057,-7.95808E-013)">
				<title>Sheet.65</title>
				<path d="M8.14 605.71 A53.6944 56.306 -180 0 0 33.47 612 A17.3541 18.1982 -180 0 0 41.63 609.72 A2.81359 2.95044
							 -180 0 0 44.9 610.28 A11.6303 12.196 -180 0 0 50.37 604.28 L50.37 587.14 A22.1557 23.2333 -180 0 0 36.58
							 566.82 L13.83 565.13 A22.6009 23.7001 -180 0 0 -0 585.85 L0.07 595.57 A7.70205 8.07667 -180 0 0 2.95
							 601.98 A2.96603 3.11029 -180 0 0 6.25 602.55 A3.96915 4.1622 -180 0 0 8.14 605.71 Z" class="st18"/>
				<path d="M8.14 605.71 A53.6944 56.306 -180 0 0 33.47 612 A17.3541 18.1982 -180 0 0 41.63 609.72 A2.81359 2.95044
							 -180 0 0 44.9 610.28 A11.6303 12.196 -180 0 0 50.37 604.28 L50.37 587.14 A22.1557 23.2333 -180 0 0 36.58
							 566.82M13.83 565.13 A22.6009 23.7001 -180 0 0 -0 585.85 L0.07 595.57 A7.70205 8.07667 -180 0 0 2.95
							 601.98 A2.96603 3.11029 -180 0 0 6.25 602.55 A3.96915 4.1622 -180 0 0 8.14 605.71" class="st19"/>
			</g>
			<g id="shape66-258" v:mID="66" v:groupContext="shape" transform="translate(10.8973,-40.5749)">
				<title>Sheet.66</title>
				<ellipse cx="14.9838" cy="596.287" rx="14.9838" ry="15.7126" class="st20"/>
			</g>
			<g id="shape67-261" v:mID="67" v:groupContext="shape" transform="translate(-598.455,508.532) rotate(-81.1625)">
				<title>Sheet.67</title>
				<path d="M0 612 A55.5612 55.1945 0 0 1 30.06 612" class="st21"/>
			</g>
			<g id="shape68-265" v:mID="68" v:groupContext="shape" transform="translate(-567.714,652.041) rotate(-93.9726)">
				<title>Sheet.68</title>
				<path d="M-0 610.85 A107.577 106.767 -180 0 0 31.52 610.85" class="st21"/>
			</g>
			<g id="shape69-269" v:mID="69" v:groupContext="shape" transform="translate(13.8941,-40.8395)">
				<title>Sheet.69</title>
				<path d="M-0 605.7 A15.012 15.7422 -180 0 0 22.63 607.39" class="st21"/>
			</g>
			<g id="shape70-273" v:mID="70" v:groupContext="shape" transform="translate(0.0341057,0)">
				<title>Sheet.70</title>
				<path d="M13.83 565.13 A23.0589 24.1804 -180 0 0 0 585.86 L0.07 595.57 A7.70205 8.07667 -180 0 0 2.95 601.98 A2.96603
							 3.11029 -180 0 0 6.25 602.55 A3.96915 4.1622 -180 0 0 8.14 605.71 A53.6944 56.306 -180 0 0 33.47 612
							 A17.3541 18.1982 -180 0 0 41.63 609.72 A2.81359 2.95044 -180 0 0 44.9 610.28 A11.6303 12.196 -180 0
							 0 50.37 604.28 L50.37 588.73 A21.9347 23.0016 -180 0 0 36.58 566.82 L36.45 566.81 A14.9897 15.7187 -180
							 1 0 13.83 565.13" class="st22"/>
			</g>
		</g>
		<g id="shape55-276" v:mID="55" v:groupContext="shape" transform="translate(223.2,-299.4)">
			<title>Circle.55</title>
			<desc>foreign</desc>
			<v:userDefs>
				<v:ud v:nameU="visVersion" v:val="VT0(14):26"/>
			</v:userDefs>
			<v:textBlock v:margins="rect(4,4,4,4)"/>
			<v:textRect cx="36" cy="576" width="63.01" height="54"/>
			<path d="M0 576 A36 36 0 0 1 72 576 A36 36 0 1 1 0 576 Z" class="st8"/>
			<text x="12.77" y="580.8" class="st9" v:langID="1033"><v:paragraph v:horizAlign="1"/><v:tabList/>foreign</text>		</g>
		<g id="shape56-279" v:mID="56" v:groupContext="shape" transform="translate(18,-64.8)">
			<title>Rectangle.56</title>
			<desc>CRAN Core R Tools Users</desc>
			<v:userDefs>
				<v:ud v:nameU="visVersion" v:val="VT0(14):26"/>
			</v:userDefs>
			<v:textBlock v:margins="rect(4,4,4,4)"/>
			<v:textRect cx="41.4" cy="356.4" width="82.8" height="511.2"/>
			<rect x="0" y="100.8" width="82.8" height="511.2" class="st8"/>
			<text x="13.8" y="176.4" class="st23" v:langID="1033"><v:paragraph v:horizAlign="1"/><v:tabList/><v:newlineChar/>CRAN<v:newlineChar/><v:newlineChar/><v:newlineChar/><v:newlineChar/><v:newlineChar/><v:newlineChar/><tspan
						x="9.29" dy="7.2em" class="st7">Core R<v:newlineChar/><v:newlineChar/><v:newlineChar/><v:newlineChar/></tspan><tspan
						x="12.74" dy="4.8em" class="st7"> </tspan>Tools<v:newlineChar/><v:newlineChar/><v:newlineChar/><v:newlineChar/><tspan
						x="14.16" dy="4.8em" class="st7">Users</tspan></text>		</g>
	</g>
</svg>
